<svg xmlns="http://www.w3.org/2000/svg" width="18" height="15" viewBox="0 0 18 15" fill="none">
  <path d="M3.73002 14.616L5.07702 11.269C5.16302 11.0784 5.29235 10.9217 5.46502 10.799C5.63835 10.6764 5.83068 10.615 6.04202 10.615H8.50002V5.80203C6.21935 5.7567 4.30602 5.47137 2.76002 4.94603C1.21468 4.4207 0.442017 3.80403 0.442017 3.09603C0.442017 2.3347 1.26968 1.69237 2.92502 1.16903C4.58035 0.6457 6.60535 0.384033 9.00002 0.384033C11.3987 0.384033 13.4247 0.6457 15.078 1.16903C16.7313 1.69237 17.558 2.3347 17.558 3.09603C17.558 3.81603 16.782 4.43603 15.23 4.95603C13.678 5.4747 11.768 5.7567 9.50002 5.80203V10.615H11.958C12.1654 10.615 12.3567 10.6764 12.532 10.799C12.7067 10.9217 12.837 11.0784 12.923 11.269L14.269 14.615H13.231L12.031 11.615H5.96902L4.76902 14.615H3.73102L3.73002 14.616ZM9.00002 4.80703C10.796 4.80703 12.414 4.6397 13.854 4.30503C15.294 3.97037 16.174 3.56703 16.494 3.09503C16.174 2.62303 15.294 2.2197 13.854 1.88503C12.414 1.55037 10.796 1.38337 9.00002 1.38403C7.20402 1.38403 5.58602 1.55137 4.14602 1.88603C2.70602 2.2207 1.82602 2.62403 1.50602 3.09603C1.82602 3.56803 2.70602 3.97137 4.14602 4.30603C5.58602 4.6407 7.20402 4.80703 9.00002 4.80703Z" fill="white"/>
</svg>